<svg xmlns="http://www.w3.org/2000/svg"
     width="20" height="20"
     viewBox="0 0 24 24"
     fill="currentColor"
     role="img"
     aria-label="Confluence">
    <path d="M19.62 13.2a.88.88 0 0 0-1.23-.33l-4.87 2.86a.9.9 0 0 1-1.23-.33l-.64-1.11a.9.9 0 0 1 .33-1.23l7.05-4.14a.9.9 0 0 0 .33-1.23l-1.37-2.38a.9.9 0 0 0-1.23-.33L7.1 11.26a.9.9 0 0 0-.33 1.23l2.52 4.37c1.02 1.77 3.28 2.37 5.05 1.34l5.03-2.95a.9.9 0 0 0 .33-1.23l-1.08-1.82Z"/>
    <path d="M4.38 10.8a.88.88 0 0 0 1.23.33l4.87-2.86a.9.9 0 0 1 1.23.33l.64 1.11a.9.9 0 0 1-.33 1.23L4.97 15.08a.9.9 0 0 0-.33 1.23l1.37 2.38a.9.9 0 0 0 1.23.33l11.13-6.43a.9.9 0 0 0 .33-1.23l-2.52-4.37C14.18 5.22 11.92 4.62 10.15 5.65L5.12 8.6a.9.9 0 0 0-.33 1.23l-.41.97Z"/>
</svg>